Coordinates
version=1
nRows=14
nColumns=24
inDegrees=yes

Units are S.I. units (second, meters, Newtons, ...)
Angles are in degrees.

endheader
time	pelvis_tilt	pelvis_list	pelvis_rotation	pelvis_tx	pelvis_ty	pelvis_tz	hip_flexion_r	hip_adduction_r	hip_rotation_r	knee_angle_r	ankle_angle_r	subtalar_angle_r	mtp_angle_r	hip_flexion_l	hip_adduction_l	hip_rotation_l	knee_angle_l	ankle_angle_l	subtalar_angle_l	mtp_angle_l	lumbar_extension	lumbar_bending	lumbar_rotation
      1.58000000	     -7.86055441	     -0.73747449	      2.85361392	      0.46873827	      1.22302031	     -0.83209688	      6.78766788	      4.62437714	     -4.37252730	    -42.82548893	      2.66715551	      1.45733985	     23.05309947	     31.35876073	      8.14663029	     10.27866028	    -20.19184419	     -9.32400667	     -7.35999554	      7.17878680	     -3.55555443	     -4.28451410	      1.24208932
      1.58500000	     -7.76354256	     -0.47266009	      2.99928528	      0.47451538	      1.22367496	     -0.83275207	      7.52255533	      3.98447450	     -4.99589377	    -44.58954153	      1.32914648	      1.05462136	     23.18790426	     30.90751755	      8.54939852	     10.39849949	    -20.45204017	     -9.08302977	     -7.45157315	      7.15309574	     -3.59075648	     -4.65726407	      1.15099761
      1.59000000	     -7.66404141	     -0.21514911	      3.14448904	      0.48026006	      1.22436929	     -0.83338774	      8.23775797	      3.35269544	     -5.56883633	    -46.25804209	      0.03927672	      0.52001805	     23.04490329	     30.41632916	      8.93242467	     10.51156425	    -20.64453353	     -8.81068223	     -7.49526225	      7.16415141	     -3.62810511	     -5.02213799	      1.05773448
      1.59500000	     -7.57153184	      0.01915319	      3.28487369	      0.48593604	      1.22508181	     -0.83401706	      8.95272726	      2.75157343	     -6.08885538	    -47.83519909	     -1.18923244	     -0.16967229	     22.60642215	     29.91087294	      9.28163952	     10.61845614	    -20.78948664	     -8.50458622	     -7.51530935	      7.19908761	     -3.66763830	     -5.35487722	      0.96617734
      1.60000000	     -7.48648188	      0.23090898	      3.41973139	      0.49155668	      1.22580612	     -0.83464221	      9.66499901	      2.17848459	     -6.56512406	    -49.31735336	     -2.30217295	     -0.96867415	     21.93365021	     29.39522204	      9.59593301	     10.70723460	    -20.89260106	     -8.16151627	     -7.50225167	      7.25593081	     -3.69780807	     -5.65418128	      0.88032217
      1.60500000	     -7.41432494	      0.41438515	      3.54792306	      0.49710760	      1.22655368	     -0.83526168	     10.38047546	      1.64471057	     -6.99599041	    -50.69487805	     -3.28316236	     -1.88121307	     21.09493561	     28.87697639	      9.87013534	     10.78983816	    -20.95374180	     -7.80319444	     -7.44972746	      7.32884513	     -3.72200530	     -5.91716369	      0.79157267
      1.61000000	     -7.32829590	      0.58203520	      3.67732501	      0.50259181	      1.22731988	     -0.83589261	     11.06626724	      1.12703605	     -7.40638091	    -51.98129479	     -4.10642625	     -2.69674309	     19.76270545	     28.32662402	     10.11704119	     10.85890629	    -20.97502540	     -7.39287815	     -7.27998851	      7.40979102	     -3.76698159	     -6.15201003	      0.69598310
      1.61500000	     -7.30183386	      0.70028696	      3.79141710	      0.50797376	      1.22804818	     -0.83651690	     11.82698862	      0.68498662	     -7.75273424	    -53.15669582	     -4.73218452	     -3.86121301	     19.11130161	     27.85500909	     10.31332629	     10.93970340	    -21.00134809	     -7.02290129	     -7.24825753	      7.47102147	     -3.75544333	     -6.32917886	      0.60782702
      1.62000000	     -7.27022654	      0.79263586	      3.89998386	      0.51326776	      1.22879397	     -0.83712534	     12.57239418	      0.28385048	     -8.07046531	    -54.22752641	     -5.24022104	     -5.02502126	     18.16348795	     27.37794035	     10.46869465	     10.99266171	    -21.01143672	     -6.61285030	     -7.11283467	      7.55571319	     -3.76237253	     -6.47177665	      0.51937101
      1.62500000	     -7.25104166	      0.86220925	      4.00076289	      0.51847244	      1.22952920	     -0.83773326	     13.32793416	     -0.08290267	     -8.35964661	    -55.19994098	     -5.57973422	     -6.15078590	     17.14671783	     26.91570035	     10.59448396	     11.04310124	    -21.00909762	     -6.19192014	     -6.94046430	      7.62514121	     -3.76450146	     -6.57943501	      0.42812608
      1.63000000	     -7.24986695	      0.90762034	      4.09519094	      0.52359744	      1.23024758	     -0.83833754	     14.10043150	     -0.41404252	     -8.62239535	    -56.07154304	     -5.75283543	     -7.23500373	     16.20349362	     26.47784636	     10.69045672	     11.08542294	    -20.99919264	     -5.76935617	     -6.75726046	      7.68015648	     -3.75752282	     -6.65542701	      0.33340272
      1.63500000	     -7.26393073	      0.92841576	      4.17717092	      0.52862891	      1.23095558	     -0.83892846	     14.88943853	     -0.70129473	     -8.85003341	    -56.83911657	     -5.79080914	     -8.27298024	     15.32702038	     26.06572071	     10.75523231	     11.12314129	    -20.98943958	     -5.35187711	     -6.56592868	      7.72570032	     -3.74505146	     -6.69725657	      0.23703516
      1.64000000	     -7.26031799	      0.93335756	      4.25116578	      0.53360033	      1.23168047	     -0.83949136	     15.64269729	     -0.95119853	     -9.05190135	    -57.49621194	     -5.66388741	     -9.14774570	     14.28238163	     25.63076070	     10.78979070	     11.14015908	    -20.96302483	     -4.90325772	     -6.28081674	      7.72330199	     -3.76018786	     -6.71593083	      0.14088836
      1.64500000	     -7.33276715	      0.91446555	      4.31959921	      0.53846687	      1.23230114	     -0.84007401	     16.50297667	     -1.17308669	     -9.23092801	    -58.07673135	     -5.45918665	    -10.02315654	     13.75101505	     25.30772351	     10.81590723	     11.18334983	    -20.96550277	     -4.52764716	     -6.17074527	      7.75266548	     -3.70888175	     -6.70330236	      0.03885892
